<svg xmlns="http://www.w3.org/2000/svg" width="128" height="128" style="isolation:isolate"><defs><clipPath id="a"><path d="M0 0H128V128H0z"/></clipPath></defs><g clip-path="url(#a)"><circle cx="64" cy="64" r="64" fill="#2F8826" vector-effect="non-scaling-stroke"/><path fill="#FFF" d="M 76.688 51.312 C 87.424 62.059 87.277 79.289 76.753 89.872 C 76.733 89.893 76.71 89.916 76.688 89.938 L 64.613 102.013 C 53.963 112.663 36.636 112.662 25.988 102.013 C 15.337 91.365 15.337 74.036 25.988 63.387 L 32.655 56.72 C 34.423 54.952 37.468 56.127 37.559 58.626 C 37.676 61.81 38.247 65.009 39.301 68.099 C 39.657 69.145 39.402 70.302 38.621 71.084 L 36.269 73.436 C 31.233 78.471 31.075 86.671 36.062 91.756 C 41.097 96.892 49.374 96.922 54.448 91.848 L 66.523 79.775 C 71.589 74.709 71.568 66.522 66.523 61.477 C 65.858 60.814 65.188 60.298 64.665 59.938 C 63.915 59.422 63.452 58.582 63.417 57.672 C 63.346 55.774 64.018 53.817 65.519 52.317 L 69.302 48.533 C 70.294 47.541 71.85 47.42 73.001 48.222 C 74.318 49.142 75.552 50.176 76.688 51.312 L 76.688 51.312 Z M 102.012 25.987 C 91.364 15.338 74.037 15.337 63.387 25.987 L 51.312 38.062 C 51.29 38.084 51.267 38.107 51.247 38.128 C 40.724 48.711 40.576 65.941 51.312 76.688 C 52.448 77.824 53.682 78.858 54.999 79.777 C 56.15 80.58 57.706 80.458 58.698 79.466 L 62.481 75.683 C 63.981 74.183 64.654 72.226 64.583 70.327 C 64.548 69.417 64.085 68.578 63.335 68.062 C 62.811 67.702 62.142 67.186 61.477 66.522 C 56.432 61.478 56.411 53.29 61.477 48.225 L 73.552 36.152 C 78.626 31.078 86.902 31.108 91.938 36.243 C 96.924 41.329 96.767 49.528 91.731 54.564 L 89.379 56.916 C 88.597 57.697 88.342 58.855 88.699 59.901 C 89.753 62.99 90.324 66.19 90.44 69.374 C 90.532 71.873 93.577 73.048 95.345 71.28 L 102.012 64.612 C 112.663 53.964 112.663 36.635 102.012 25.987 L 102.012 25.987 Z"/></g></svg>